# xmcd CD database file
#
# Track frame offsets:
#	150
#	14581
#	32663
#	50762
#	64817
#	77729
#	90432
#	103482
#	119469
#	136840
#	148910
#	171485
#	185091
#	198142
#	212151
#	226143
#	238090
#	252610
#	266178
#	280973
#	293563
#	312251
#
# Disc length: 4346 seconds
#
# Revision: 2
# Processed by: cddbd v1.5.2PL0 Copyright (c) Steve Scherf et al.
# Submitted via: CDex 1.51
#
DISCID=5910f816
DTITLE=Various Artist - Tenor Sax Story - Vol.2  {1937-1948}
DYEAR=2002
DGENRE=Jazz
TTITLE0=Herschel Evans - Blue And Sentimental
TTITLE1=Herschel Evans - Swinging At The Daisy Chain
TTITLE2=Herschel Evans - Nagasaki
TTITLE3=Herschel Evans - Doggin' Around
TTITLE4=Illinois Jacquet - Jumpin' Jacquet N°2
TTITLE5=Illinois Jacquet - Blow Illinois Blow
TTITLE6=Illinois Jacquet - Just A Stettin' And A Rockin'
TTITLE7=Buddy Tate - Swing Shift
TTITLE8=Buddy Tate - Rock-A-Bye Basie
TTITLE9=Buddy Tate - Swingin' Away With Willie And Ray
TTITLE10=Arnett Cobb - Loose Wig
TTITLE11=Arnett Cobb - Running With Ray
TTITLE12=Red Prysock - Hot In Harlem
TTITLE13=Chu Berry - Shufflin' At The Hollywood
TTITLE14=John Hardee - River Edge Rock
TTITLE15=Julian Dash - No Soap  (A Jitterburg Jamree)
TTITLE16=Paul Bascombe - Sweet Georgia Brown
TTITLE17=Dick Wilson - Lotta Sax Appeal
TTITLE18=Robert 'Little Sax' Crowder - Down Home Jump
TTITLE19=Lester Young - Jive At Five
TTITLE20=Lester Young - I Got Rhythm
TTITLE21=Paul Quinichette - My Baby's Business
EXTD=YEAR: 2002
EXTT0=
EXTT1=
EXTT2=
EXTT3=
EXTT4=
EXTT5=
EXTT6=
EXTT7=
EXTT8=
EXTT9=
EXTT10=
EXTT11=
EXTT12=
EXTT13=
EXTT14=
EXTT15=
EXTT16=
EXTT17=
EXTT18=
EXTT19=
EXTT20=
EXTT21=
PLAYORDER=
